<svg xmlns="http://www.w3.org/2000/svg" viewBox="0 0 203.9 203.9"><linearGradient id="A" x1=".655" x2="114.251" y1="163.466" y2="49.87" gradientUnits="userSpaceOnUse"><stop stop-color="#414042" offset="0"/><stop offset="1"/></linearGradient><path d="M15.1 62.9C35.4 41 70.6 30.4 99.8 33.6c16.7 2.5 32.2 9.8 40 21.9-29.8-24.1-73-14.2-97.3 12.7-28.8 32.6-15 96.7 15.3 124.5-44-21.4-79-90.5-42.7-129.8z" fill="url(#A)"/><linearGradient id="B" x1="136.76" x2="223.76" y1="116.72" y2="2.718" gradientUnits="userSpaceOnUse"><stop stop-color="#414042" offset="0"/><stop offset=".61"/><stop stop-color="#fff" offset="1"/></linearGradient><path d="m188.8 141.1c-20.3 21.9-55.5 32.4-84.6 29.2-16.7-2.5-32.2-9.8-40-21.9 29.8 24.1 73 14.2 97.3-12.7 28.8-32.6 15-96.7-15.3-124.5 43.9 21.5 78.9 90.6 42.6 129.9z" fill="url(#B)"/><linearGradient id="C" x1="53.066" x2="139.282" y1="179.079" y2="92.862" gradientUnits="userSpaceOnUse"><stop stop-color="#414042" offset="0"/><stop offset="1"/></linearGradient><path d="m62.9 188.8c-21.9-20.3-32.4-55.5-29.2-84.6 2.5-16.7 9.8-32.2 21.9-40-24.1 29.8-14.2 73 12.7 97.3 32.6 28.8 96.7 15 124.5-15.3-21.6 43.9-90.7 78.9-129.9 42.6z" fill="url(#C)"/><linearGradient id="D" x1="-.762" x2="158.86" y1="49.884" y2="49.884" gradientUnits="userSpaceOnUse"><stop stop-color="#414042" offset="0"/><stop offset="1"/></linearGradient><path d="M141.1 15.1C101.8-21.2 32.7 13.8 11.2 57.7 34.2 32.7 81.7 19 116 31c0 0 45.2 10.9 54.4 68.8 3.1-29.2-7.4-64.4-29.3-84.7z" fill="url(#D)"/><linearGradient id="E" x1="144.357" x2="97.868" y1="124.943" y2="64.819" gradientUnits="userSpaceOnUse"><stop stop-color="#414042" offset="0"/><stop offset="1"/></linearGradient><path d="m151.3 81.9c13.9 9.3 15.2 27.5 8.1 40.7-3.9 7.3-11.9 19.5-18.2 22.5 13.5-13 9.2-32.2-2.3-45.7-14-16-41.6-14.3-57-1.4 13-19.9 50.4-31.2 69.4-16.1z" fill="url(#E)"/></svg>