<svg xmlns="http://www.w3.org/2000/svg" viewBox="0 0 90.818 116.995" fill="currentColor"><path d="M82.262 110.353H10.643a1 1 0 0 1-1-1V10.098a1 1 0 0 1 1-1h45.445a1 1 0 0 1 .721.307l26.178 27.272a1 1 0 0 1 .279.693v71.987a1 1 0 0 1-1.004.996Zm-70.623-2h69.623V37.768l-25.6-26.67H11.643Z"/><path d="M82.267 40.911H54.635a1 1 0 0 1-1-1.012l.364-29.813a1 1 0 1 1 2 .024l-.351 28.8h26.619a1 1 0 0 1 0 2Z"/><path d="M48.272 54.908a21.172 21.172 0 0 1 14.975 36.153 21.178 21.178 0 1 1-23.219-34.488 21.046 21.046 0 0 1 8.244-1.665Zm0 40.356a19.183 19.183 0 0 0 7.465-36.849 19.183 19.183 0 0 0-14.93 35.342 19.057 19.057 0 0 0 7.465 1.507Z"/><path d="M89.988 117.165a1 1 0 0 1-.707-.293l-25.9-25.9a1 1 0 0 1 0-1.414 1 1 0 0 1 1.414 0l25.9 25.9a1 1 0 0 1-.707 1.707ZM10.642 98.9H.826a1 1 0 0 1-1-1V.826a1 1 0 0 1 1-1h73.078a1 1 0 0 1 1 1v27.813a1 1 0 0 1-2 0V1.826H1.826V96.9h8.816a1 1 0 1 1 0 2Z"/></svg>