<svg xmlns="http://www.w3.org/2000/svg" viewBox="0 0 90.8 117" fill="currentColor"><path d="m90.1 113.9-7.1-7.1v-69c0-.4-.1-.7-.4-1l-7.8-8.1V2c0-.8-.7-1.5-1.5-1.5H1.7C.9.5.3 1.2.3 2v95.1c0 .8.7 1.5 1.5 1.5h8.1v9.7c0 .8.7 1.5 1.5 1.5h70.5l6.3 6.3c.3.3.7.4 1 .4s.8-.2 1-.4c.3-.3.4-.7.4-1s-.2-.8-.4-1ZM71.8 25.6 56.9 10.1c-.3-.3-.7-.5-1.1-.5H11.4c-.8 0-1.5.7-1.5 1.5v84.5H3.2V3.5h68.6v22.1ZM80 38.8H55.9l.3-25.2L80 38.4v.4ZM12.8 97.1V12.6h40.5L53 40.3c0 .8.7 1.5 1.5 1.5h25.6v62.1L65 88.8c2.9-3.7 4.5-8.3 4.5-13.1 0-11.7-9.5-21.2-21.2-21.2-2.8 0-5.6.6-8.2 1.7-2.5 1.1-4.8 2.6-6.7 4.5-4 4-6.2 9.3-6.2 15 0 5.7 2.2 11 6.2 15s9.3 6.2 15 6.2c5.6 0 10.8-2.1 14.8-6l15.9 15.9H12.8v-9.7Zm53.7-21.4c0 10.1-8.2 18.3-18.3 18.3-2.4 0-4.8-.5-7.1-1.4-9.3-3.9-13.7-14.7-9.7-24 2.9-7 9.7-11.2 16.9-11.2s4.8.5 7.1 1.4c6.8 2.9 11.2 9.5 11.2 16.8Z"/></svg>