<svg xmlns="http://www.w3.org/2000/svg" viewBox="0 0 24.542 24.602" fill="currentColor"><path d="m0 24.602 1.767-6.581a12.178 12.178 0 1 1 4.851 4.809Zm6.944-4.238.417.248a9.886 9.886 0 1 0-3.383-3.352l.256.42-.985 3.674Z"/><path fill-rule="evenodd" d="M16.912 13.841a2.043 2.043 0 0 0-1.74-.392c-.452.185-.741.892-1.034 1.254a.433.433 0 0 1-.56.121 7.878 7.878 0 0 1-3.933-3.369.482.482 0 0 1 .061-.659 2.653 2.653 0 0 0 .714-1.16 2.537 2.537 0 0 0-.319-1.373 3.259 3.259 0 0 0-1.014-1.528 1.391 1.391 0 0 0-1.509.224 3.067 3.067 0 0 0-1.062 2.427 3.542 3.542 0 0 0 .1.769 6.354 6.354 0 0 0 .739 1.7 13.619 13.619 0 0 0 .771 1.173 11.914 11.914 0 0 0 3.341 3.107 10.142 10.142 0 0 0 2.085.992 4.631 4.631 0 0 0 2.428.383 2.936 2.936 0 0 0 2.2-1.637 1.419 1.419 0 0 0 .1-.836c-.125-.575-.9-.918-1.37-1.2"/></svg>