<svg xmlns="http://www.w3.org/2000/svg" viewBox="0 0 123.815 107.455" fill="currentColor"><path d="M122.988 80.907h-20.177a1 1 0 0 1 0-2h19.177V1.826H1.826v77.081h74.255a1 1 0 0 1 0 2H.826a1 1 0 0 1-1-1V.826a1 1 0 0 1 1-1h122.162a1 1 0 0 1 1 1v79.081a1 1 0 0 1-1 1Z"/><path d="M102.812 107.628a1 1 0 0 1-.707-.293l-26.73-26.721a1 1 0 1 1 1.414-1.417l25.022 25.015V79.907a1 1 0 0 1 2 0v26.721a1 1 0 0 1-1 1Z"/><path fill="#555" d="M103.354 24.189h-83.44a1 1 0 0 1-1-1 1 1 0 0 1 1-1h83.44a1 1 0 0 1 1 1 1 1 0 0 1-1 1Zm0 17.996h-83.44a1 1 0 0 1-1-1 1 1 0 0 1 1-1h83.44a1 1 0 0 1 1 1 1 1 0 0 1-1 1Zm0 17.997h-83.44a1 1 0 0 1-1-1 1 1 0 0 1 1-1h83.44a1 1 0 0 1 1 1 1 1 0 0 1-1 1Z"/></svg>