<svg xmlns="http://www.w3.org/2000/svg" viewBox="0 0 123.8 107.5" fill="currentColor"><path d="M121.9.3H1.9C1.1.3.5 1 .5 1.8v77.6c0 .8.7 1.5 1.5 1.5h73.3l25.8 25.8c.3.3.7.4 1 .4.8 0 1.5-.7 1.5-1.5V80.8h18.3c.8 0 1.5-.7 1.5-1.5V1.8c0-.8-.7-1.5-1.5-1.5Zm-19.8 77.6c-.8 0-1.5.7-1.5 1.5v22.7L76.9 78.4c-.1-.1-.3-.2-.4-.3H3.4V3.3h117V78h-18.3Z"/><path d="M20.7 25.2h81.9c.8 0 1.5-.7 1.5-1.5s-.7-1.5-1.5-1.5H20.7c-.8 0-1.5.7-1.5 1.5s.7 1.5 1.5 1.5Zm81.9 14.7H20.7c-.8 0-1.5.7-1.5 1.5s.7 1.5 1.5 1.5h81.9c.8 0 1.5-.7 1.5-1.5s-.7-1.5-1.5-1.5Zm0 17.7H20.7c-.8 0-1.5.7-1.5 1.5s.7 1.5 1.5 1.5h81.9c.8 0 1.5-.7 1.5-1.5s-.7-1.5-1.5-1.5Z"/></svg>