<svg xmlns="http://www.w3.org/2000/svg" viewBox="0 0 56.798 56.797" fill="currentColor"><path d="M28.399 56.8A28.405 28.405 0 0 1 17.341 2.233a28.406 28.406 0 0 1 22.11 52.332A28.222 28.222 0 0 1 28.399 56.8Zm0-52.8a24.405 24.405 0 0 0-9.5 46.88A24.406 24.406 0 0 0 37.896 5.917 24.244 24.244 0 0 0 28.399 4Z"/><path d="M28.399 0a7.348 7.348 0 0 1 5.35 2.748 20.113 20.113 0 0 1 3.522 6.282 57.112 57.112 0 0 1 3.028 19.37 57.112 57.112 0 0 1-3.027 19.369 20.113 20.113 0 0 1-3.523 6.282 7.348 7.348 0 0 1-5.35 2.749 7.348 7.348 0 0 1-5.35-2.748 20.113 20.113 0 0 1-3.523-6.282 57.112 57.112 0 0 1-3.027-19.37 57.112 57.112 0 0 1 3.027-19.37 20.113 20.113 0 0 1 3.523-6.282A7.348 7.348 0 0 1 28.399 0Zm0 52.8c1.674 0 3.639-2.465 5.127-6.434A53.079 53.079 0 0 0 36.299 28.4a53.079 53.079 0 0 0-2.773-17.966C32.038 6.465 30.073 4 28.399 4s-3.639 2.465-5.128 6.434A53.079 53.079 0 0 0 20.499 28.4a53.079 53.079 0 0 0 2.772 17.963c1.489 3.968 3.453 6.437 5.128 6.437Z"/><path d="M51.265 40.298H5.531v-4h45.734Zm.233-19.799h-46.2v-4h46.2Z"/></svg>