<svg xmlns="http://www.w3.org/2000/svg" viewBox="0 0 90.9 115.6" fill="currentColor"><path d="M71.3 27.1C60.7 14.1 61.7 2 61.7 1.9c0-.5-.2-1-.6-1.4-.4-.3-1-.4-1.5-.1-.3.2-8.1 3.9-15.2 13-6.3 8.1-13.3 22.4-10.8 44-1.7-.4-4.4-1.2-7-2.7-5.8-3.3-8.7-8.4-8.5-15.2 0-.6-.3-1.1-.9-1.4-.5-.2-1.2-.1-1.6.3l-.3.3c-9.1 8.5-14 19.9-14 32.3 0 24.4 19.8 44.2 44.2 44.2S89.7 95.4 89.7 71s-4.8-27.1-18.4-43.9Zm-25.9 85.1C22.7 112.2 4.2 93.7 4.2 71s3.9-20.4 11-28c2 15.7 19.8 17.8 19.9 17.8.4 0 .9-.1 1.2-.4.3-.3.5-.8.4-1.2C32 24.6 51.4 9 58.7 4.4c.2 4.5 1.8 14.2 10.2 24.6C82 45.1 86.6 56.1 86.6 71c0 22.7-18.5 41.2-41.2 41.2Z"/><path d="M57.2 74.2C52.9 68.9 53.3 64 53.3 64c0-.5-.2-1.1-.6-1.4-.4-.3-1-.4-1.5-.1-.1 0-3.7 1.8-6.9 5.9-2.7 3.4-5.6 9.4-4.9 18.3-2.1-.7-5-2.5-4.9-6.5 0-.6-.3-1.1-.9-1.4-.5-.2-1.2-.1-1.6.3h-.2c-4 3.9-6.2 9.1-6.2 14.6s2.6 11.5 7.2 15.3c.3.3.7.4 1.1.3.4 0 .8-.2 1-.5.5-.6.4-1.6-.2-2.1-3.9-3.2-6.1-8-6.1-13s1.2-7.3 3.4-10.2c1.5 4.6 6.2 6.4 8.9 6.7.5 0 .9-.1 1.2-.4.3-.3.5-.8.4-1.2-1.8-13 4.5-19.5 7.9-22 .3 2.2 1.4 5.9 4.4 9.7 5.5 6.8 7.4 11.3 7.4 17.5s-3.2 11.6-8.5 14.6c-.7.4-1 1.3-.5 2 .3.5.8.7 1.3.7s.5 0 .7-.2c6.1-3.5 10-10.1 10-17.2s-2.1-12-8.1-19.4Z"/></svg>