<svg xmlns="http://www.w3.org/2000/svg" viewBox="0 0 90.887 115.638" fill="currentColor"><path d="M60.669-.174a1 1 0 0 1 .991.864 64.472 64.472 0 0 0 2.837 10.907 80.618 80.618 0 0 0 4.67 10.887 73.967 73.967 0 0 0 7.827 12.074 57.034 57.034 0 0 1 6.489 10.679 81.789 81.789 0 0 1 5.363 14.623 64.695 64.695 0 0 1 2.214 16.444 41.619 41.619 0 0 1-3.058 16.122 33.132 33.132 0 0 1-12.927 15.176 46.178 46.178 0 0 1-11.106 5.081 72.377 72.377 0 0 1-14.655 2.843 59.986 59.986 0 0 1-5.744.284 46.807 46.807 0 0 1-16.384-2.8 39.35 39.35 0 0 1-12.5-7.514A41.879 41.879 0 0 1 6.032 94.65a48.331 48.331 0 0 1-4.9-12.8 49.212 49.212 0 0 1 .958-26.139 34.772 34.772 0 0 1 5.687-10.756 26.255 26.255 0 0 1 9.1-7.4 1 1 0 0 1 1.395 1.187 13.274 13.274 0 0 0-.4 3.39 14.115 14.115 0 0 0 1.968 7.308 16.255 16.255 0 0 0 5.236 5.276 29.725 29.725 0 0 0 8.973 3.689 58.782 58.782 0 0 1-.6-5.163 68.617 68.617 0 0 1 .675-16.075 53.608 53.608 0 0 1 7.244-19.73A50.116 50.116 0 0 1 60.189-.051a1 1 0 0 1 .48-.123Zm-17.1 113.985c1.8 0 3.67-.092 5.552-.274 10.158-.983 18.526-3.547 24.874-7.621A31.167 31.167 0 0 0 86.16 91.644c2.51-5.94 4.678-16.189.751-31.28a79.757 79.757 0 0 0-5.231-14.259 55.033 55.033 0 0 0-6.248-10.3 75.984 75.984 0 0 1-8.057-12.434 82.633 82.633 0 0 1-4.788-11.179 72.491 72.491 0 0 1-2.664-9.8 47.816 47.816 0 0 0-16.84 16.065 51.584 51.584 0 0 0-6.979 18.969 66.223 66.223 0 0 0-.67 15.6 50.313 50.313 0 0 0 .853 6.481 1 1 0 0 1-1.185 1.2 33.161 33.161 0 0 1-11.136-4.326 18.207 18.207 0 0 1-5.864-5.95 16.318 16.318 0 0 1-2.23-8.388 17.189 17.189 0 0 1 .094-1.717 24.72 24.72 0 0 0-6.623 5.877 32.782 32.782 0 0 0-5.352 10.134 47.187 47.187 0 0 0-.907 25.061 46.332 46.332 0 0 0 4.693 12.274 39.884 39.884 0 0 0 8.234 10.334 37.358 37.358 0 0 0 11.872 7.133 44.817 44.817 0 0 0 15.687 2.672Z"/><path d="M55.024 112.31a1 1 0 0 1-.585-1.811 21.2 21.2 0 0 0 5.908-6.307 18.484 18.484 0 0 0 2.45-7.082 21.355 21.355 0 0 0-.792-8.943 22.188 22.188 0 0 0-3.94-7.5 33.586 33.586 0 0 1-6.022-11.457 31.663 31.663 0 0 1-.881-3.727 28.468 28.468 0 0 0-6.835 7.4 23.164 23.164 0 0 0-3.141 8.029 20.824 20.824 0 0 0 .076 8.487 1 1 0 0 1-1.3 1.209 16.128 16.128 0 0 1-7.483-5.386 13.951 13.951 0 0 1-1.049-1.612 22.078 22.078 0 0 0-3.108 9.277 17.272 17.272 0 0 0 1.345 8.223 20.129 20.129 0 0 0 5.256 7.23 1 1 0 0 1-1.241 1.569 21.784 21.784 0 0 1-5.821-7.935 19.259 19.259 0 0 1-1.535-9.187 25.083 25.083 0 0 1 4.413-11.847 1 1 0 0 1 1.794.274 10.233 10.233 0 0 0 1.6 2.888 13.426 13.426 0 0 0 4.847 3.932 24.265 24.265 0 0 1 .221-7.379 25.141 25.141 0 0 1 3.392-8.764 31.252 31.252 0 0 1 8.766-9.032 1 1 0 0 1 1.572.751 25.609 25.609 0 0 0 1.046 5.087 31.567 31.567 0 0 0 5.639 10.713 24.206 24.206 0 0 1 4.3 8.177 23.368 23.368 0 0 1 .861 9.788 21.45 21.45 0 0 1-9.172 14.746 1 1 0 0 1-.581.189Z"/></svg>