<svg xmlns="http://www.w3.org/2000/svg" viewBox="0 0 24.803 24.804" fill="currentColor"><path d="M18.968 4.429a1.454 1.454 0 1 0 1.454 1.454 1.454 1.454 0 0 0-1.454-1.454m-6.465 1.865a6.109 6.109 0 1 0 6.108 6.108 6.115 6.115 0 0 0-6.108-6.108m0 10.021a3.913 3.913 0 1 1 3.913-3.913 3.917 3.917 0 0 1-3.913 3.913"/><path d="M17.353 24.804h-9.9a7.458 7.458 0 0 1-7.45-7.45v-9.9A7.459 7.459 0 0 1 7.453.003h9.9a7.459 7.459 0 0 1 7.45 7.451v9.9a7.458 7.458 0 0 1-7.45 7.45m-9.9-22.47a5.122 5.122 0 0 0-5.117 5.117v9.9a5.123 5.123 0 0 0 5.117 5.117h9.9a5.123 5.123 0 0 0 5.117-5.117v-9.9a5.123 5.123 0 0 0-5.117-5.117Z"/></svg>