<svg xmlns="http://www.w3.org/2000/svg" viewBox="0 0 59.398 59.397" fill="currentColor"><path d="m14.284 17.113-7-7 2.829-2.828 7 7Zm35 35-7-7 2.829-2.828 7 7Zm-4.171-35-2.828-2.829 7-7 2.828 2.829Zm-35 35-2.828-2.829 7-7 2.828 2.829ZM9.9 31.699H0v-4h9.9Zm49.498 0h-9.9v-4h9.9ZM31.699 9.9h-4V0h4Zm0 49.498h-4v-9.9h4Z"/><path d="M29.7 7.895a21.8 21.8 0 1 1 0 43.6 21.8 21.8 0 1 1 0-43.6Zm0 39.6a17.8 17.8 0 1 0-12.586-5.213A17.682 17.682 0 0 0 29.7 47.495Z"/><path d="M29.699 21.099a8.6 8.6 0 1 1-8.6 8.6 8.609 8.609 0 0 1 8.6-8.6Zm0 13.2a4.6 4.6 0 1 0-4.6-4.6 4.6 4.6 0 0 0 4.6 4.6Z"/></svg>