<svg xmlns="http://www.w3.org/2000/svg" viewBox="0 0 123.94 100.998" fill="currentColor"><path d="M62.173 93.348a1 1 0 0 1-.713-.3L50.008 81.389a1 1 0 0 1-.287-.7V43.626a1 1 0 0 1 1-1h22.723a1 1 0 0 1 1 1v37.06a1 1 0 0 1-.281.7l-11.27 11.657a1 1 0 0 1-.715.3ZM51.722 80.279l10.446 10.636 10.276-10.631V44.626H51.722Zm34.237-7.748H75.647a1 1 0 0 1 0-2h10.312a6.2 6.2 0 0 0 4.3-1.7 5.63 5.63 0 0 0 1.754-4.066 5.922 5.922 0 0 0-6.054-5.767H75.647a1 1 0 0 1 0-2h10.312a7.922 7.922 0 0 1 8.053 7.766 7.614 7.614 0 0 1-2.367 5.507l-.006.005a8.2 8.2 0 0 1-5.68 2.255Zm-37.449 0H36.683a7.922 7.922 0 0 1-8.053-7.766 7.614 7.614 0 0 1 2.362-5.508l.006-.005a8.2 8.2 0 0 1 5.681-2.254H48.51a1 1 0 0 1 0 2H36.683a6.2 6.2 0 0 0-4.3 1.7 5.63 5.63 0 0 0-1.754 4.066 5.922 5.922 0 0 0 6.053 5.766H48.51a1 1 0 0 1 0 2Z"/><path d="M53.506 31.801h17.579a1 1 0 0 1 1 1V43.42a1 1 0 0 1-1 1H53.506a1 1 0 0 1-1-1V32.801a1 1 0 0 1 1-1Zm16.579 2H54.506v8.619h15.579Z"/><path d="M42.438-.054H82.37a1 1 0 0 1 1 1v31.451a1 1 0 0 1-1 1H42.438a1 1 0 0 1-1-1V.946a1 1 0 0 1 1-1Zm38.932 2H43.438v29.451H81.37Z"/><path d="M122.953 6.735H82.587a1 1 0 0 1-1-1 1 1 0 0 1 1-1h40.366a1 1 0 0 1 1 1 1 1 0 0 1-1 1Zm0 12.076H82.587a1 1 0 0 1-1-1 1 1 0 0 1 1-1h40.366a1 1 0 0 1 1 1 1 1 0 0 1-1 1ZM41.352 6.735H.986a1 1 0 0 1-1-1 1 1 0 0 1 1-1h40.366a1 1 0 0 1 1 1 1 1 0 0 1-1 1Zm0 12.076H.986a1 1 0 0 1-1-1 1 1 0 0 1 1-1h40.366a1 1 0 0 1 1 1 1 1 0 0 1-1 1Zm28.865 82.24H53.506a1 1 0 0 1-1-1 1 1 0 0 1 1-1h16.711a1 1 0 0 1 1 1 1 1 0 0 1-1 1Z"/></svg>