<svg xmlns="http://www.w3.org/2000/svg" viewBox="0 0 123.9 101" fill="currentColor"><path d="M121.9 16.9H83.5V8h38.4c.8 0 1.5-.7 1.5-1.5s-.7-1.5-1.5-1.5H83.5V1.8c0-.8-.7-1.5-1.5-1.5H42.7c-.8 0-1.5.7-1.5 1.5V5H2C1.2 5 .5 5.7.5 6.5S1.2 8 2 8h39.3v8.9H2c-.8 0-1.5.7-1.5 1.5s.7 1.5 1.5 1.5h39.3v12.9c0 .8.7 1.5 1.5 1.5h9.4v8.1h-1.3c-.8 0-1.5.7-1.5 1.5v12.8c-.2-.1-.4-.2-.7-.2H37.1c-2.2 0-4.3.8-5.9 2.4-1.6 1.5-2.5 3.6-2.5 5.8 0 4.6 3.9 8.2 8.4 8.1h11.6c.2 0 .5 0 .7-.2v7.7c0 .4.2.8.4 1l11.3 11.5c.3.3.7.4 1.1.4h.2c.3 0 .6-.2.8-.4l11.1-11.5c.3-.3.4-.6.4-1v-7.7c.2.1.4.2.7.2h10.2c2.2 0 4.3-.8 5.9-2.4 1.6-1.5 2.5-3.6 2.5-5.8 0-4.6-3.9-8.2-8.4-8.1H75.5c-.2 0-.5 0-.7.2V43.9c0-.8-.7-1.5-1.5-1.5h-.8v-8.1h9.6c.8 0 1.5-.7 1.5-1.5V19.9H122c.8 0 1.5-.7 1.5-1.5s-.7-1.5-1.5-1.5ZM37.1 69.7c-3 0-5.4-2.3-5.4-5.2 0-1.4.6-2.7 1.6-3.6 1-1 2.4-1.5 3.9-1.5h11.7c.2 0 .5 0 .7-.2v10.7c-.2-.1-.4-.2-.7-.2H37.3Zm48.5-10.3h.1c2.9 0 5.2 2.3 5.3 5.2 0 1.4-.6 2.7-1.6 3.6-1 1-2.4 1.5-3.9 1.5H75.3c-.2 0-.5 0-.7.2V59.2c.2.1.4.2.7.2h10.2ZM71.8 45.2v34.4l-9.6 9.9-9.8-9.9V45.2h19.4Zm-2.4-3.1H55.1v-7.5h14.3v7.5ZM44.2 31.2V3.3h36.3v28H44.2Zm25.9 66.5H53.7c-.8 0-1.5.7-1.5 1.5s.7 1.5 1.5 1.5h16.4c.8 0 1.5-.7 1.5-1.5s-.7-1.5-1.5-1.5Z"/></svg>