<svg xmlns="http://www.w3.org/2000/svg" viewBox="0 0 119.6 101.1" fill="currentColor"><path d="M117.7.3H2C1.2.3.5 1 .5 1.8V82c0 .8.7 1.5 1.5 1.5h74.1c0 7.5.1 14.4.1 14.9 0 .8.7 1.5 1.5 1.5.4 0 .8-.2 1.1-.5l5.7-5.7 6.6 6.6c.3.3.7.4 1 .4.8 0 1.5-.7 1.5-1.5V83.4h24c.8 0 1.5-.7 1.5-1.5V1.8c0-.8-.7-1.5-1.5-1.5ZM83.1 70.2h-1c-.2 0-.4 0-.6-.1h-.3c-.3 0-.7-.2-1-.3-.1 0-.3-.1-.4-.2-.2 0-.3-.1-.5-.2-.2 0-.3-.2-.5-.3-.2 0-.3-.2-.5-.3-.4-.3-.9-.6-1.3-.9-1.5-1.1-2.7-2.6-3.6-4.3-.9-1.7-1.3-3.7-1.3-5.6 0-2.2.6-4.4 1.7-6.3 1.7-2.9 4.4-4.9 7.6-5.8 3.2-.8 6.6-.4 9.5 1.3 2.9 1.7 4.9 4.4 5.8 7.6.8 3.2.4 6.6-1.3 9.5-1 1.7-2.3 3-3.9 4.1-1 .6-2 1.1-3 1.4h-.3c-.2 0-.4.1-.6.2-.2 0-.4 0-.6.1-.3 0-.5 0-.8.1h-3Zm10.5 0c2.6-1.9 4.5-4.5 5.5-7.6 1.3-3.9 1-8.1-.9-11.8-1.9-3.7-5-6.4-9-7.7-3.9-1.3-8.1-1-11.8.9-7.6 3.8-10.7 13.2-6.9 20.8 1 2.1 2.6 3.9 4.4 5.3l.9.6v3.5H20.9c-.7-5.5-5-9.8-10.5-10.5V21.6c5.5-.7 9.8-5 10.5-10.5h78.9c.7 5.5 5 9.8 10.5 10.5v42c-5.5.7-9.8 5-10.5 10.5h-6.3v-3.9ZM79 82v-9.8h.2c.3.1.7.2 1 .3h.3l1.2.3h.4c.3 0 .6 0 .9.1h1.9c.5 0 1.1 0 1.6-.2h.2c.5 0 .9-.2 1.4-.3h.3c.4-.1.8-.2 1.2-.4.1 0 .3-.1.4-.2.2 0 .4-.1.5-.2v23.7l-5.1-5.1c-.6-.6-1.5-.6-2.1 0L79 94.5c0-3.2 0-8.1-.1-12.9Zm14.6-4.9h7.7c.4 0 .8-.2 1-.4.3-.3.4-.7.4-1 0-5 4.1-9.1 9.1-9.1.8 0 1.5-.7 1.5-1.5V20.2c0-.8-.7-1.5-1.5-1.5-5 0-9.1-4.1-9.1-9.1 0-.8-.7-1.5-1.5-1.5H19.7c-.8 0-1.5.7-1.5 1.5 0 5-4.1 9.1-9.1 9.1s-1.5.7-1.5 1.5V65c0 .8.7 1.5 1.5 1.5 5 0 9.1 4.1 9.1 9.1s.7 1.5 1.5 1.5H76v3.5H3.5V3.3h112.7v77.2H93.7V77Z"/><path d="M84.5 66c2.2 0 4.3-.9 5.8-2.4 1.6-1.6 2.4-3.6 2.4-5.8 0-4.6-3.7-8.3-8.3-8.3-4.5 0-8.3 3.7-8.3 8.3 0 2.2.9 4.3 2.4 5.8 1.6 1.6 3.6 2.4 5.8 2.4Zm-5.3-8.2c0-2.9 2.4-5.3 5.3-5.3 1.4 0 2.7.5 3.7 1.5s1.6 2.3 1.6 3.7c0 2.9-2.4 5.3-5.3 5.3s-5.3-2.4-5.3-5.3Z"/></svg>