<svg xmlns="http://www.w3.org/2000/svg" viewBox="0 0 119.633 101.092" fill="currentColor"><path d="M.826-.174h117.98a1 1 0 0 1 1 1v81.806a1 1 0 0 1-1 1h-26a1 1 0 0 1-1-1V71.57a15.3 15.3 0 0 1-13 .3l.024 2.311.019 1.9c.016 1.939.039 4.032.063 6.249v.3a1 1 0 0 1-1 1.011H.826a1 1 0 0 1-1-1V.826a1 1 0 0 1 1-1Zm116.98 2H1.826v79.806h75.078c-.021-1.954-.041-3.807-.055-5.536l-.019-1.9a588.382 588.382 0 0 0-.047-3.959 1 1 0 0 1 1.505-.879 13.28 13.28 0 0 0 13.966-.353 1 1 0 0 1 1.55.835v11.79h24Z"/><path d="M102.182 77.089h-9.378a1 1 0 0 1 0-2h8.42a11.809 11.809 0 0 1 10.766-10.758V20.582a11.809 11.809 0 0 1-10.766-10.758H19.855A11.8 11.8 0 0 1 9.097 20.582v43.749a11.8 11.8 0 0 1 10.758 10.758h57.994a1 1 0 0 1 0 2H18.897a1 1 0 0 1-1-1 9.8 9.8 0 0 0-9.8-9.8 1 1 0 0 1-1-1V19.623a1 1 0 0 1 1-1 9.8 9.8 0 0 0 9.8-9.8 1 1 0 0 1 1-1h83.286a1 1 0 0 1 1 1 9.814 9.814 0 0 0 9.807 9.8 1 1 0 0 1 1 1V65.29a1 1 0 0 1-1 1 9.814 9.814 0 0 0-9.807 9.8 1 1 0 0 1-1.001.999Z"/><path d="M84.991 50.001a7.908 7.908 0 1 1-7.91 7.907 7.916 7.916 0 0 1 7.91-7.907Zm0 13.815a5.908 5.908 0 1 0-5.91-5.908 5.914 5.914 0 0 0 5.91 5.908Z"/><path d="M84.987 73.173a15.261 15.261 0 0 1-7.71-2.087h-.007a16.4 16.4 0 0 1-1.567-1.063 15.437 15.437 0 0 1-4.35-5.253 15.268 15.268 0 1 1 13.634 8.4Zm-6.7-3.811a13.271 13.271 0 1 0-6.559-11.451 13.116 13.116 0 0 0 1.412 5.959 13.423 13.423 0 0 0 3.782 4.568 14.388 14.388 0 0 0 1.37.924Z"/><path d="M78.08 100.382a1 1 0 0 1-1-1v-.017c-.009-.578-.089-8.571-.165-16.722v-.269c-.024-2.227-.047-4.331-.063-6.276l-.019-1.9a588.382 588.382 0 0 0-.047-3.959 1 1 0 0 1 2-.033c.018 1.07.031 2.415.047 3.972l.019 1.9c.016 1.945.039 4.047.063 6.273v.271c.074 7.928.157 16.212.165 16.718v.041a1 1 0 0 1-1 1.001Z"/><path d="M92.804 101.266a1 1 0 0 1-.707-.293l-7.109-7.109-6.2 6.2a1 1 0 0 1-1.414-1.414l6.908-6.908a1 1 0 0 1 1.414 0l6.109 6.109V69.843a1 1 0 0 1 2 0v30.423a1 1 0 0 1-1 1Z"/></svg>