<svg xmlns="http://www.w3.org/2000/svg" viewBox="0 0 34.93 30.93" fill="currentColor"><path d="M34.93 3.33V27.6c0 1.84-1.46 3.33-3.26 3.33H17.01c-1.24-.04-2.48-.21-3.69-.51-6.83-1.7-12-7.43-13.1-14.52v-.02c-.08-.48-.13-.96-.17-1.44-.02-.3-.04-.62-.05-.94v-.81A17.94 17.94 0 0 1 3.61 2.24c.01 0 .02-.02.02-.03a.82.82 0 0 1 1.17-.12c.16.13.26.32.29.53.08.55.2 1.1.34 1.64.1.4.22.8.34 1.18.95 2.88 2.6 5.46 4.79 7.51.59.54 1.2 1.04 1.85 1.5.29.21.59.4.88.59.07.05.16.09.23.14.02 0 .03.02.05.02.12.07.25.1.38.1.46 0 .83-.37.83-.84v-.01c0-.21-.08-.42-.22-.57 0-.02-.04-.04-.05-.06-.04-.04-.08-.09-.12-.14-.02-.02-.03-.04-.05-.06-.05-.07-.1-.12-.14-.18 0-.02-.01-.03-.03-.03l-.16-.21v-.02c-.06-.08-.12-.16-.17-.23-.2-.28-.37-.58-.55-.88v-.02c-1.66-2.95-1.9-6.52-.65-9.67v-.02c0-.02 0-.03.01-.05.12-.26.35-.45.63-.49.04 0 .09-.01.13-.01.34 0 .64.21.77.52v.04c.22.6.49 1.18.8 1.73.17.3.35.59.55.87 1.31 1.87 3.16 3.28 5.29 4.02.31.1.64.02.87-.22L29.36.98a3.204 3.204 0 0 1 4.61 0c.62.63.96 1.48.96 2.36"/></svg>