<svg xmlns="http://www.w3.org/2000/svg" viewBox="0 0 652 652" fill="currentColor"><path d="M326.5 399.9 44.3 271.1l282.3-113.7 278.8 113.7-278.8 128.8Zm0-255.5-312 126.7 312 142.9 311-144-311-125.6Z"/><path d="M251.1 220.7h48.5v13.6h-30.7v36.6h28.9v13.6h-28.9v53.2h-17.8v-117zm60.6 0h28.4l16.4 89.1h.3l16.5-89.1h27.6v117h-16.7V232.4h-.4l-18.3 105.3h-17.7l-20-105.3h-.4v105.3h-15.7v-117zM164.6 440h.2l7.4 37.8H157l7.5-37.8Zm-6.3-11.5-19 78.5h12l3.9-20h18.7l3.9 20h12l-17.6-78.5h-13.9Zm37.2 0h19.8c16.3 0 19.4 4 19.4 22.2s-3.1 22.1-19.4 22.1h-7.8v34.1h-12v-78.4Zm12 35.2h6.2c8.1 0 8.9-1.2 8.9-13.1s-.8-13.1-8.9-13.1h-6.2v26.2Zm34.6-35.2h19.8c16.3 0 19.4 4 19.4 22.2s-3.1 22.1-19.4 22.1h-7.8v34.1h-12v-78.4Zm12 35.2h6.2c8.1 0 9-1.2 9-13.1s-.9-13.1-9-13.1h-6.2v26.2Zm34.5-35.2h18.6c17.4 0 19.2 4.2 19.2 21.4s-1.6 15.1-11.4 17.8v.2c8.1.8 10.9 4.6 10.9 12V497c0 2.8 0 6.8.7 10h-11.3c-1.2-2-1.4-3.9-1.4-7v-17.7c0-7.4-1.5-9.4-9.4-9.4h-4.1V507h-12v-78.5Zm12 35.2h3.1c9.4 0 10.7-1.6 10.7-13.4s-.7-12.7-8.1-12.7h-5.7v26.1Zm34.2-15.2c0-11 3.9-20.6 20.2-20.6s20.3 7.3 20.3 19.5v39.7c0 11-3.9 20.6-20.3 20.6s-20.2-7.3-20.2-19.5v-39.6Zm12 40.3c0 6.8 3.3 10.3 8.3 10.3s8.4-3.6 8.4-10.3v-41.2c0-7.7-2.8-11.3-8.4-11.3s-8.3 3.6-8.3 11.3v41.2Zm67.9-60.3-12.5 62.4h-.3l-12.4-62.4h-12l17.7 78.4H409l17.6-78.4h-11.9zm17.3 0v78.4h32.6v-9.1H444v-26.5h19.3v-9.1H444v-24.6h20.6v-9.1H432zm37.7 0h19.2c19.4 0 21 5.9 21 28.7v23.4c0 20.1-3.9 26.5-22.9 26.5h-17.3v-78.5Zm11.9 69.3h5.7c8.9 0 10.5-4.2 10.5-17.7v-27c0-11.6-1.3-15.5-11.5-15.5h-4.8v60.2Z"/></svg>