<svg xmlns="http://www.w3.org/2000/svg" viewBox="0 0 652 652"><path d="m450.1 572.3-32.3-60.1 2.2-1.3c8.4-4.9 16.6-10.4 24.2-16.5 7.6-6 14.8-12.7 21.5-19.8 6.7-7.1 12.8-14.8 18.4-22.7 5.6-8.1 10.6-16.6 14.9-25.3 4.4-8.8 8.1-18.1 11.1-27.5 3.1-9.6 5.4-19.5 6.9-29.4 1.6-10.1 2.4-20.6 2.4-30.9s-1.3-27-4-40.1c-2.6-12.8-6.5-25.3-11.6-37.3-5-11.8-11.2-23.2-18.3-33.8-7.1-10.5-15.3-20.4-24.3-29.4s-18.9-17.1-29.4-24.3c-10.6-7.2-22-13.4-33.8-18.3-12-5.1-24.6-9-37.3-11.6-26.2-5.4-53.9-5.4-80.1 0-12.8 2.6-25.3 6.5-37.3 11.6-11.8 5-23.1 11.1-33.8 18.3-10.5 7.1-20.4 15.3-29.4 24.3s-17.2 18.9-24.3 29.4c-7.2 10.6-13.3 22-18.3 33.8-5.1 12-9 24.5-11.6 37.3-2.7 13.1-4 26.6-4 40.1s.7 21.5 2.2 31.9c1.5 10.3 3.7 20.3 6.6 30 2.9 9.6 6.4 19 10.7 27.8 4.2 8.8 9.1 17.4 14.5 25.3 5.4 8 11.5 15.5 18.2 22.5s13.9 13.5 21.6 19.4c7.7 5.9 16.1 11.3 24.8 15.9l2.5 1.3-37.9 57.1-2.1-1.2c-11.3-6.4-22.2-13.7-32.3-21.7-10-7.9-19.5-16.7-28.2-26.1-8.6-9.4-16.7-19.5-23.8-30.1-7.2-10.6-13.6-22-19.1-33.7-5.5-11.8-10.3-24.2-14-36.8-3.8-12.8-6.7-26.1-8.6-39.5-2-13.6-3-27.7-3-41.8s1.8-36.2 5.4-53.7c3.5-17.1 8.7-34 15.5-50.1 6.7-15.8 15-31 24.6-45.3 9.5-14.1 20.5-27.4 32.6-39.5s25.4-23 39.5-32.6c14.3-9.6 29.5-17.9 45.3-24.6 16.1-6.8 33-12 50.1-15.5 35.1-7.2 72.4-7.2 107.5 0 17.1 3.5 34 8.7 50.1 15.5 15.8 6.7 31.1 15 45.3 24.6 14.1 9.5 27.4 20.5 39.5 32.6 12.1 12.1 23 25.4 32.6 39.5 9.6 14.3 17.9 29.5 24.6 45.3 6.8 16.1 12 33 15.5 50.1 3.6 17.6 5.4 35.6 5.4 53.7s-1.1 28-3.2 41.7c-2.1 13.4-5.3 26.8-9.4 39.7-4.1 12.7-9.1 25.2-15.1 37.1-5.9 11.8-12.7 23.3-20.3 34.1-7.5 10.7-15.9 21-24.9 30.6-9 9.5-18.8 18.5-29.1 26.6-10.4 8.2-21.4 15.6-32.9 22.1l-2.5 1.3Zm-25.3-58.1 27.4 50.9c10.4-6 20.4-12.9 29.9-20.3 10.1-7.9 19.7-16.7 28.6-26.1 8.9-9.4 17.1-19.5 24.5-30 7.4-10.6 14.1-21.9 19.9-33.4 5.8-11.7 10.8-24 14.8-36.4 4.1-12.7 7.2-25.8 9.2-38.9 2.1-13.4 3.2-27.2 3.2-40.9s-1.8-35.5-5.3-52.7c-3.4-16.8-8.6-33.3-15.2-49.1-6.6-15.5-14.7-30.4-24.1-44.4-9.4-13.8-20.1-26.8-31.9-38.7a262.51 262.51 0 0 0-38.7-31.9c-14-9.4-28.9-17.6-44.4-24.1-15.8-6.7-32.3-11.8-49.1-15.2-34.4-7.1-71-7.1-105.4 0-16.8 3.4-33.3 8.6-49.1 15.2-15.5 6.6-30.4 14.7-44.4 24.1-13.9 9.4-26.9 20.1-38.7 31.9s-22.6 24.9-31.9 38.7c-9.4 14-17.6 28.9-24.1 44.4-7 15.7-12.1 32.2-15.6 49-3.5 17.2-5.3 35-5.3 52.7s1 27.7 2.9 41c1.9 13.2 4.7 26.2 8.5 38.8 3.7 12.4 8.3 24.6 13.7 36.1 5.4 11.5 11.7 22.6 18.7 33s14.8 20.3 23.3 29.5 17.8 17.8 27.6 25.6c9.3 7.3 19.2 14.1 29.5 20l32-48.3c-8-4.5-15.7-9.5-23-15-7.9-6-15.4-12.7-22.2-19.9-6.8-7.2-13.1-15-18.7-23.2s-10.6-17-14.9-26c-4.3-9.1-8-18.7-10.9-28.6-3-9.9-5.2-20.3-6.7-30.8-1.5-10.6-2.3-21.6-2.3-32.6s1.4-27.7 4.2-41.1c2.7-13.1 6.7-26 11.9-38.3 5.1-12.1 11.4-23.8 18.8-34.7 7.3-10.8 15.7-21 24.9-30.2s19.4-17.6 30.2-24.9c10.9-7.4 22.6-13.7 34.7-18.8 12.3-5.2 25.2-9.2 38.3-11.9 26.9-5.5 55.3-5.5 82.2 0 13.1 2.7 26 6.7 38.3 11.9 12.1 5.1 23.7 11.4 34.7 18.8 10.8 7.3 21 15.7 30.2 24.9s17.6 19.4 24.9 30.2c7.4 10.9 13.7 22.6 18.8 34.7 5.2 12.3 9.2 25.2 11.9 38.3 2.7 13.4 4.1 27.3 4.1 41.1s-.8 21.3-2.5 31.7c-1.6 10.2-4 20.4-7.1 30.2-3.1 9.7-6.9 19.2-11.4 28.3-4.4 9-9.6 17.7-15.3 26-5.7 8.2-12 16-18.9 23.3-6.8 7.3-14.2 14.1-22.1 20.3-7.1 5.8-14.7 11.1-22.6 15.8"/><path d="m164.4 535-3.4-2.9 17.6-20.9-10-8.4 2.5-3 13.4 11.3-20.1 23.9zm-33.6-31.6c-6.2-7.2-4.7-15.9 2.3-21.9 7.2-6.2 15.8-6.4 22 .8 6.3 7.2 4.8 15.7-2.3 21.9-7 6-15.8 6.3-22-.8m21.4-18.6c-4.7-5.4-11.3-3.8-16 .2-4.8 4.2-7 10.6-2.5 15.8 4.5 5.2 11.2 3.9 16-.2 4.7-4.1 7.2-10.4 2.5-15.8m-44.4-22.3c.4 2.4.8 3.7 2 5.7 1.3 2.1 3.6 4.2 6.4 2.4 5.1-3.2-3.2-13.8 5.6-19.2 5.7-3.5 10.6-.5 13.9 4.8 1.2 1.9 1.8 4 2.3 6.1l-3.8 1.8c-.3-1.6-.9-4.4-2.1-6.3-1.3-2.2-4.4-4.5-7.6-2.5-5.9 3.7 2.8 14.1-5.5 19.2-4.7 2.9-9.5.8-12.5-4-1.1-1.8-2.1-4-2.6-6.3l3.9-1.7Zm-14.3-28.7c0 2.4.3 3.7 1.2 5.9 1 2.3 3.1 4.6 6 3.3 5.5-2.5-1.3-14.1 8-18.3 6.1-2.7 10.6.8 13.2 6.6.9 2 1.2 4.2 1.5 6.4l-4 1.3c0-1.6-.3-4.5-1.3-6.5-1-2.3-3.8-5-7.2-3.5-6.4 2.9.9 14.3-7.9 18.3-5 2.3-9.5-.5-11.9-5.6-.8-1.9-1.5-4.3-1.7-6.5l4.1-1.4Zm-16.9-36.9-1.6-8c-1.2-6.3 0-11.9 6.9-13.3 6.8-1.4 10.3 3.5 11.4 9l.9 4.3 12.2-2.4.9 4.4-30.7 6Zm13.6-7.2-.9-4.3c-.5-2.7-2.6-5.9-6.6-5.1-3.9.8-4.5 5.1-3.9 7.8l.7 3.7 10.7-2.1Zm-19.3-28.3-.4-7.6c-.3-6.2.4-12.2 7.9-12.5 3.8-.2 6.6 2.5 7.4 6.1.5-1.4 1.1-2.1 3-3.2l12.1-6.5.2 5.1-10.6 5.3c-3 1.5-2.9 3-2.8 5.4v2.7l14-.7.2 4.5-31.1 1.4Zm13.1-5.1-.2-3.8c-.2-4.2-2.2-6.7-5.2-6.5-2.8.1-4.5 2.4-4.3 6.5l.2 4.3 9.5-.5Zm-13.5-33.4 1.7-17.5 4 .4-1.3 13 9.1.9 1.1-11.8 3.9.4-1.1 11.8 10.2 1 1.3-13 3.9.4-1.7 17.4-31.1-3zm38.7-41.8-1.4 5.4-33.2 3.5 1.3-4.9 28.8-2.3v-.1l-23.9-16.5 1.2-4.6 27.2 19.5zm-21.3-34.6 7-16 3.6 1.6-5.2 11.9 8.3 3.7 4.8-10.8 3.6 1.6-4.8 10.8 9.4 4.2 5.3-12 3.6 1.6-7.1 16-28.5-12.6zm15.3-32 3.3-5.1 28.6 2.1.1-.1-21.1-13.6 2.4-3.8 26.2 17-3.1 4.8-29.2-2.1-.1.1 21.6 13.9-2.4 3.8-26.3-17zm32.7-37.9-6.6 7.2-2.9-2.7 16-17.7 3 2.6-6.5 7.2 20.2 18.3-3 3.4-20.2-18.3zm17.5-23.2 3.3-2.9 20.6 23.4-3.3 3-20.6-23.5zm28.8-22.8c7.9-5.2 16.3-2.5 21.4 5.2 5.2 7.9 4.3 16.5-3.7 21.7-7.9 5.2-16.2 2.7-21.4-5.2-5.1-7.7-4.2-16.5 3.7-21.7m15.6 23.6c6-4 5.3-10.7 1.9-15.8-3.5-5.3-9.6-8.4-15.3-4.5-5.8 3.7-5.4 10.5-1.9 15.8 3.4 5.2 9.3 8.5 15.3 4.5m13.9-40 5.6-2.4 22.4 17.8h.1l-9.7-23.2 4.1-1.7 12.1 28.8-5.3 2.2-23-18.2 9.9 23.7-4.1 1.7-12.1-28.7zm84.9-18.3c-2.1-.9-4.4-1.1-6.6-.8-7.1 1-11.1 6.8-10.1 13.8 1 7.3 6.9 11.3 13.4 10.4 2.2-.3 5.1-1.3 6.5-2.5l.9 4.3c-2.2 1.3-5.1 1.9-6.9 2.1-9.8 1.4-17.2-4-18.6-13.8-1.4-9.5 4.6-16.8 14.1-18.2 2.4-.3 4.8-.3 7.1.3l.2 4.4Zm16.2-5.9h17.5l-.1 4-13-.1v9.1l11.8.1v3.9h-11.8v10.3h13v3.9h-17.5l.1-31.2zm35.1 1.4 7.6 1.2c6.1.9 11.8 2.8 10.7 10.2-.6 3.7-3.8 6-7.4 6.1 1.3.8 1.8 1.6 2.5 3.7l4 13.2-5-.8-3.1-11.4c-.9-3.2-2.4-3.4-4.7-3.8l-2.7-.4-2.1 13.7-4.4-.7 4.6-31Zm2.3 13.9 3.8.6c4.2.6 6.9-.8 7.4-3.8.4-2.8-1.4-4.9-5.5-5.5l-4.2-.7-1.5 9.4Zm40.4-.9-9.2-2.9 1.1-3.8 22.8 7.1-1.1 3.8-9.3-2.9-8.1 26-4.3-1.3 8.1-26zm28.3 6.2 4.1 1.8-12.7 28.5-4-1.8 12.6-28.5zm20.1 9.7 14.3 8.4-1.9 3.4-10.5-6.2-4.6 7.9 10 5.9-2 3.4-10-5.9-7.2 12.3-3.8-2.3 15.7-26.9zm27 17.1 3.5 2.7-18.5 25.1-3.6-2.7 18.6-25.1zm29.9 32.5c-.6-2.2-1.8-4.1-3.5-5.7-5.2-4.9-12.3-4.5-17.1.6-5 5.3-4.5 12.5.2 17 1.6 1.5 4.2 3.2 6 3.6l-2.8 3.3c-2.4-.9-4.6-2.8-5.9-4.1-7.2-6.8-7.6-15.9-.8-23.1 6.6-7 16.1-6.9 23-.3 1.8 1.7 3.2 3.6 4.2 5.8l-3.3 2.9Zm22.3 18.6 2.8 3.8-17.1 29.2-2.9-3.9 4.4-7.2-9.1-12.2-8.2 2.2-2.8-3.7 32.9-8.2Zm-2.1 4.2L500 197l7.4 10 8.7-14.3Zm18.7 28.5-4.6-8.6 3.4-1.8 11.4 21-3.5 1.8-4.6-8.5-24 12.9-2.1-3.9 24-12.9zm15.9 24.2 1.7 4.2-29 11.5-1.7-4.2 29-11.5zm11.8 34.9c2.2 9.2-3.1 16.2-12.1 18.4-9.2 2.2-17-1.5-19.2-10.8-2.2-9.2 2.9-16.2 12.1-18.4 9-2.2 17 1.6 19.2 10.8M535 287c1.7 7 8.2 8.6 14.3 7.1 6.2-1.5 11.1-6.2 9.4-12.9-1.6-6.7-8.1-8.6-14.3-7.1-6 1.4-11.1 5.9-9.4 12.9m33 26.6.4 6.1-24.4 15.1v.1l25.1-1.4.3 4.5-31.2 1.6-.3-5.7 24.8-15.5v-.1l-25.6 1.4-.2-4.4 31.1-1.7zm-1.9 65.6-1.7 8.3c-1.3 6.4-4.2 10.3-9.9 9.2-4.2-.8-5.8-3.7-6-7.8-1.2 4.1-4.5 6.5-8.8 5.6-6.6-1.3-7.1-7.1-5.8-13.3l1.6-8.2 30.7 6.2Zm-27.9-1-.7 3.3c-.8 3.9-.7 7.7 3.4 8.5 4.7.9 6.2-3.1 7-6.9l.6-2.8-10.3-2.1Zm14 2.8-.5 2.4c-.9 4.2-1.2 7.9 3.3 8.8 3.6.7 5.2-2.2 5.7-4.7l.9-4.6-9.4-1.9Zm.6 48.8c-3.4 8.8-11.8 11.5-20.5 8.2-8.8-3.4-13.1-11-9.6-19.8 3.4-8.9 11.6-11.6 20.5-8.2 8.6 3.3 13 11 9.6 19.8m-26.5-10.2c-2.6 6.7 1.9 11.8 7.7 14 5.9 2.3 12.7 1.3 15.1-5.2 2.5-6.4-1.8-11.7-7.7-14-5.8-2.2-12.5-1.5-15.1 5.2m7.5 47.9-2.4 4-33.5-5 2.5-4.2 8.4 1.4 8-13-5.1-6.8 2.4-4 19.7 27.6Zm-4.7-.4-10-13.4-6.5 10.6 16.5 2.8Zm-14.7 28.6-5 5.8c-4 4.6-8.7 8.5-14.3 3.6-2.8-2.5-3-6.4-1.1-9.5h-.1c-1.3.6-2.3.6-4.4.1l-13.2-3.7 3.4-3.8 11.3 3.5c3.2 1 4.2-.1 5.7-1.9l1.8-2-10.4-9.1 2.9-3.4 23.4 20.4Zm-13.1-5.5-2.5 2.9c-2.8 3.2-3 6.3-.8 8.3 2.1 1.8 4.9 1.4 7.6-1.7l2.8-3.2-7.1-6.3Zm-13.5 33.9-7.1 5.8c-7.1 5.9-16.5 6.2-22.6-1.3-6.7-8.1-5.2-16.3 2.7-22.8l7.1-5.9 19.9 24.2ZM467 505.9l-3.6 3c-5.9 4.9-6.9 10.4-1.7 16.7 4.6 5.6 11.2 5.8 16.2 1.7l4-3.3-14.9-18.1ZM185.9 381.5h42.7c3.9 0 6.3 2.1 6.3 6.4s-2.3 6.6-6.3 6.6h-49.2c-4.6 0-6.6-2-6.6-6.6v-106c0-4.7 2-6.6 6.6-6.6s6.4 2 6.4 6.6v99.6h.1Zm192.1 0c3.9 0 6.3 2.1 6.3 6.4s-2.3 6.6-6.3 6.6h-21.5c-14.1 0-30.9-11.8-30.9-35.2v-48.8c0-23.6 17-35.2 30.9-35.2H378c4.1 0 6.3 2.3 6.3 6.6s-2.1 6.4-6.3 6.4h-18.2c-3.7 0-7.7 0-12 3-5.7 4.1-9.1 12-9.1 18.6V360c0 6.6 3.4 14.5 9.1 18.4 4.5 3 8.2 3 12 3H378Zm-94.9-40.8c12.4 0 19.9-2.9 25.9-9.7 8.9-10.2 7.1-24.4 7.1-24.4 0-19.2-12.5-32.2-31.1-32.2 0 0-32.2 0-32.6.1-3.7.4-5.3 2.4-5.3 6.6v106.8c0 4.7 2 6.7 6.7 6.7s6.5-2 6.5-6.7v-47.2h22.8Zm-22.8-53.1H285c11.4 0 18 6.9 18 19 0 0 1.3 8.7-4.5 15.7-3.1 3.7-7.2 5.2-12.4 5.2h-25.9v-39.9ZM464.9 338c-1.9-2.1-5.7-4.9-6.3-5.2.6-.6 1.2-1.2 1.7-1.8 8.8-9.8 7.6-24.3 7.6-24.3 0-19.3-12.6-32.3-31.3-32.3h-31.5c-3.6 0-6.6 3-6.6 6.6v107.1c0 3.6 3 6.6 6.6 6.6h36.1c18.7 0 31.3-13 31.3-32.4 0 0 1.3-14.3-7.6-24.3m-53.1-50.5h24.9c11.5 0 18.1 7 18.1 19.1 0 0 1 9.5-4.5 15.7-3.2 3.6-7.2 5.5-12.5 5.5h-26v-40.3Zm47.5 74.8c0 12.2-6.6 19.1-18.1 19.1h-29.5V341h30.6c5.2 0 9.3 1.8 12.5 5.5 4.6 5.4 4.5 15.8 4.5 15.8"/></svg>