<svg xmlns="http://www.w3.org/2000/svg" viewBox="0 0 262 65.927" fill="currentColor"><path d="M155.494 57.312a9 9 0 0 0 3.623-.463l.742.532.007 6.746a12.475 12.475 0 0 1-6.292 1.79c-6.363 0-10.163-2.7-10.163-11.078V42.476h-3.145l-.562-.563v-5.7l.562-.563h.3c2.472 0 3.158-.595 3.616-1.922l.916-2.879h7.466v4.8h6.712l.561.61-.545 6.382-.56.515h-6.167v11.272c0 2.2 1.144 2.884 2.93 2.884M44.772 65.194l-.569-.569V51.233c0-6.821-2.2-8.972-5.905-8.972-3.616 0-5.448 3.479-5.448 8.7v13.664l-.569.569h-8.017l-.569-.569V31.431l.569-.569h8.017l.569.569v4.028l-.777 10.921.229.046v-.092c1.694-9.018 5.127-11.307 10.62-11.307 6.684 0 10.483 4.12 10.483 15.472v14.126l-.57.569ZM57.39 37.758c-.8-2.581-.446-5.288 3.1-6.383 3.586-1.108 5.825-.731 6.623 1.849.783 2.537.382 5.063-3.2 6.17-3.543 1.095-5.731.9-6.515-1.636m.593 26.789V43.79l.521-.635 7.847-1.571.775.635v22.328l-.648.648h-7.855l-.648-.648m19.613-28.9.61.468 2.758 10.22h.229c1.74-9.247 5.127-11.628 10.62-11.628 6.684 0 10.483 4.12 10.483 15.473v14.382l-.632.633h-7.937l-.632-.633v-13.65c0-6.821-2.014-8.972-5.448-8.972-3.937 0-5.9 3.616-5.9 9.018v13.6l-.633.633h-7.891l-.632-.633V35.647Zm28.823 14.396c0-10.62 7.37-15.336 14.374-15.336 10.8 0 16.617 4.944 16.617 15.976 0 10.574-7.37 15.244-14.374 15.244-10.849 0-16.617-4.9-16.617-15.884m21.836.641c0-6.912-3.067-9.11-6.546-9.11-3.525 0-6.134 1.6-6.134 8.469 0 6.912 3.067 9.109 6.546 9.109 3.525 0 6.134-1.6 6.134-8.469m49.58-15.976c7.953 0 13.794 4.7 14.12 14.081l-.436.586-18.583 3.2c0 4.682 2.38 6.258 6.042 6.258 4.486 0 5.809-1.8 6.956-5.52l7.31 1.788.417.6c-.734 5.271-4.8 10.227-15.461 10.227-9.43 0-14.557-4.9-14.557-15.884 0-10.62 7.69-15.336 14.191-15.336m-4.9 14.374 9.837-2.538c-.32-3.754-2.146-4.694-4.847-4.694-2.518 0-4.761 1.419-4.99 7.233M20.315 44.38a22.84 22.84 0 0 0-.343.362c-7.965-.534-10.116.436-10.64 3.625-.02.108-.035.211-.049.318-.024.225-.049.46-.064.705a17.63 17.63 0 0 0-.064 1.567v13.6c-.25.245-.387.387-.632.632H.632L0 64.563V35.647h5.007c.23.176.387.293.612.47l2.6 9.641.157.578h.248v-.088c.294-9.416 4.032-10.792 10.214-10.832.122.108.2.172.323.28Z"/><path d="M9.22 49.391a22.78 22.78 0 0 0-.044 1.573v6.648h-.02v-6.654c0-.538.02-1.063.064-1.567m217.888-12.757v-.99h-9.2c-.176.108-.318.191-.5.294 0 0-9.944 12.032-10.126 12.135h-.2l.519-1.117a.691.691 0 0 1 .01-.1V31.495c-.235-.23-.363-.358-.593-.588h-8.563V64.65l.588.588h7.975c.23-.23.358-.358.593-.588l.176-7.912s.617-2.7 4.419-3.62c3.909-.941 5.693 1.685 5.693 8.5v2.891c.23.23.362.357.593.588h8.019l.588-.588v-1.863c.147-12.281-5.3-15.368-9.2-16.249l9-9.2Z"/><path d="m216.646 46.168-.005.01a.04.04 0 0 0-.024-.005.287.287 0 0 1-.083-.014c.02 0 .073.005.113.01M262 3.322v24.2a3.319 3.319 0 0 1-3.317 3.322h-14.919v-.005a18.293 18.293 0 0 1-3.758-.5 17.8 17.8 0 0 1-13.334-14.482v-.015a16.643 16.643 0 0 1-.168-1.438c-.021-.3-.036-.62-.046-.939 0-.127-.005-.265-.005-.4s.005-.269.005-.407a17.69 17.69 0 0 1 3.673-10.423.072.072 0 0 0 .025-.031.848.848 0 0 1 1.493.407 15.845 15.845 0 0 0 .341 1.636c.1.4.223.793.35 1.173a17.875 17.875 0 0 0 4.876 7.487A18.909 18.909 0 0 0 239.1 14.4c.3.208.6.4.9.59.076.046.162.091.238.142a.145.145 0 0 0 .051.02.785.785 0 0 0 .391.1.843.843 0 0 0 .848-.848v-.005a.846.846 0 0 0-.223-.563c-.01-.02-.036-.041-.046-.061a1.437 1.437 0 0 1-.122-.138.492.492 0 0 1-.051-.056c-.05-.066-.1-.122-.147-.183-.01-.016-.015-.026-.026-.031l-.167-.214s-.01 0-.01-.015a8.54 8.54 0 0 0-.178-.234c-.2-.279-.381-.574-.559-.874 0 0-.01-.01-.01-.015a11.069 11.069 0 0 1-.665-9.646c0-.01.005-.01.005-.015a.162.162 0 0 1 .015-.046.837.837 0 0 1 .645-.487.564.564 0 0 1 .132-.01.861.861 0 0 1 .782.523.23.23 0 0 0 .01.035 11.81 11.81 0 0 0 .81 1.725 9.672 9.672 0 0 0 .559.869 10.979 10.979 0 0 0 5.379 4.013.855.855 0 0 0 .884-.218l7.791-7.783A3.315 3.315 0 0 1 262 3.322" /></svg>